Coordinates
version=1
nRows=7
nColumns=42
inDegrees=yes

Units are S.I. units (second, meters, Newtons, ...)
If the header above contains a line with 'inDegrees', this indicates whether rotational values are in degrees (yes) or radians (no).

endheader
time	pelvis_tilt	pelvis_list	pelvis_rotation	pelvis_tx	pelvis_ty	pelvis_tz	hip_flexion_r	hip_adduction_r	hip_rotation_r	knee_angle_r	knee_adduction_r	knee_angle_r_beta	ankle_angle_r	subtalar_angle_r	mtp_angle_r	hip_flexion_l	hip_adduction_l	hip_rotation_l	knee_angle_l	knee_adduction_l	knee_angle_l_beta	ankle_angle_l	subtalar_angle_l	mtp_angle_l	lumbar_extension	lumbar_bending	lumbar_rotation	arm_flex_r	arm_add_r	arm_rot_r	elbow_flex_r	pro_sup_r	wrist_flex_r	wrist_dev_r	arm_flex_l	arm_add_l	arm_rot_l	elbow_flex_l	pro_sup_l	wrist_flex_l	wrist_dev_l
      1.75000000	      5.16085046	     -0.27915948	     12.63615497	     -0.64922804	      0.87674779	     -0.18479684	     17.61589997	     -6.19658967	    -25.46690472	     31.14148176	     -4.92813942	      0.54352139	     13.80164215	     25.86512897	     -7.67472226	      0.30548741	     -0.02112347	     -1.37042241	     34.96815336	     -5.72539616	      0.61030941	     24.56266667	     21.28121338	     -7.67472226	    -29.11964637	     10.81066820	     -4.19372188	      0.28515356	    -12.10869141	    -18.72256045	     48.56916676	     90.00000001	      0.00000000	      0.00000000	     18.76382934	     -9.08705485	     32.03906215	     49.15430971	     90.00000001	      0.00000000	      0.00000000
      1.76000000	      5.01301066	     -0.17954384	     12.51362630	     -0.64526497	      0.87744328	     -0.18288165	     17.44607987	     -6.18239130	    -25.58800087	     31.08157815	     -4.86145016	      0.54247588	     13.81580208	     25.90699569	     -7.67419980	      0.20388848	     -0.08088643	     -1.39016213	     35.00234618	     -5.66601468	      0.61090619	     24.47315210	     21.25180421	     -7.67419980	    -28.93223539	     10.64860211	     -4.16993082	      0.52358846	    -12.11264040	    -18.64909459	     48.72143338	     90.00000001	      0.00000000	      0.00000000	     18.49392839	     -9.06805165	     32.12278368	     49.10732393	     90.00000001	      0.00000000	      0.00000000
      1.77000000	      4.88585583	     -0.06655826	     12.41861973	     -0.64134186	      0.87823336	     -0.18095490	     17.22190793	     -6.16531526	    -25.73728398	     30.96995035	     -4.82232367	      0.54052760	     13.88629714	     25.99463773	     -7.67368267	      0.11295691	     -0.15631985	     -1.43633359	     35.05907716	     -5.56570651	      0.61189633	     24.25993994	     21.21274904	     -7.67368267	    -28.77375074	     10.49260448	     -4.17075485	      0.76094283	    -12.09664653	    -18.55678704	     48.88972534	     90.00000001	      0.00000000	      0.00000000	     18.24045275	     -9.08929984	     32.21845233	     49.05409167	     90.00000001	      0.00000000	      0.00000000
      1.78000000	      5.45556726	      0.08957423	     12.52106995	     -0.63673931	      0.88016804	     -0.17921057	     15.93010738	     -6.03740344	    -27.03353350	     30.27791614	     -5.19635008	      0.52844933	     14.30928706	     28.64473406	     -7.66667658	     -0.90710082	     -0.43772540	     -1.26396031	     34.84186092	     -5.29598011	      0.60810519	     23.04003705	     20.67101447	     -7.66667658	    -29.29198768	     10.48689342	     -4.27442707	      0.80297626	    -12.27589837	    -17.66923268	     49.35827248	     90.00000001	      0.00000000	      0.00000000	     18.13765905	     -9.38893300	     33.14841003	     49.22438664	     90.00000001	      0.00000000	      0.00000000
      1.79000000	      5.35718264	      0.19361306	     12.46614586	     -0.63285924	      0.88095786	     -0.17734274	     15.64808450	     -6.01508013	    -27.37550306	     30.09149361	     -5.21985470	      0.52519564	     14.56522775	     29.04817632	     -7.66436269	     -0.90932936	     -0.53209343	     -1.28603550	     35.10986433	     -5.20091052	      0.61278273	     22.36955796	     20.52636872	     -7.66436269	    -29.15407976	     10.36491711	     -4.34663430	      1.07111763	    -12.26475085	    -17.57073283	     49.53874111	     90.00000001	      0.00000000	      0.00000000	     17.93075726	     -9.42921701	     33.32791450	     49.19451429	     90.00000001	      0.00000000	      0.00000000
      1.80000000	      5.21721741	      0.31326174	     12.29795954	     -0.62888753	      0.88166753	     -0.17537879	     15.47126878	     -6.01551502	    -27.49622582	     30.03240802	     -5.17382001	      0.52416440	     14.59692856	     29.06297474	     -7.66390747	     -0.93530210	     -0.55159135	     -1.27540307	     35.27319856	     -5.13889425	      0.61563345	     22.21942214	     20.49028954	     -7.66390747	    -28.96714881	     10.17414082	     -4.30542433	      1.30091461	    -12.24972024	    -17.52780740	     49.66921363	     90.00000001	      0.00000000	      0.00000000	     17.66224938	     -9.40402547	     33.40256319	     49.14761226	     90.00000001	      0.00000000	      0.00000000
      1.81000000	      5.25798189	      0.42390613	     12.35588556	     -0.62498964	      0.88261477	     -0.17354639	     14.94552729	     -5.95174165	    -27.94513594	     29.68439198	     -5.20129905	      0.51809038	     14.92285762	     29.76368443	     -7.66224198	     -0.91650882	     -0.75117895	     -1.35741466	     35.84782399	     -4.96491692	      0.62566256	     21.10874094	     20.17998927	     -7.66224198	    -28.95732961	     10.09297029	     -4.47523993	      1.51997676	    -12.23097819	    -17.35118159	     49.88828839	     90.00000001	      0.00000000	      0.00000000	     17.53391550	     -9.52191451	     33.74360134	     49.14911247	     90.00000001	      0.00000000	      0.00000000
